HIERARCHY
ROOT Hips
{
	OFFSET 0.00000 0.00000 0.00000
	CHANNELS 6 Xposition Yposition Zposition Zrotation Yrotation Xrotation 
	JOINT LHipJoint
	{
		OFFSET 0 0 0
		CHANNELS 3 Zrotation Yrotation Xrotation
		JOINT LeftUpLeg
		{
			OFFSET 1.36443 -1.53315 0.80540
			CHANNELS 3 Zrotation Yrotation Xrotation
			JOINT LeftLeg
			{
				OFFSET 2.27494 -6.25036 0.00000
				CHANNELS 3 Zrotation Yrotation Xrotation
				JOINT LeftFoot
				{
					OFFSET 2.17461 -5.97470 0.00000
					CHANNELS 3 Zrotation Yrotation Xrotation
					JOINT LeftToeBase
					{
						OFFSET 0.22144 -0.60841 2.08966
						CHANNELS 3 Zrotation Yrotation Xrotation
						End Site
						{
							OFFSET 0.00000 -0.00000 1.09206
						}
					}
				}
			}
		}
	}
	JOINT RHipJoint
	{
		OFFSET 0 0 0
		CHANNELS 3 Zrotation Yrotation Xrotation
		JOINT RightUpLeg
		{
			OFFSET -1.29957 -1.53315 0.80539
			CHANNELS 3 Zrotation Yrotation Xrotation
			JOINT RightLeg
			{
				OFFSET -2.23917 -6.15209 0.00000
				CHANNELS 3 Zrotation Yrotation Xrotation
				JOINT RightFoot
				{
					OFFSET -2.18029 -5.99030 0.00000
					CHANNELS 3 Zrotation Yrotation Xrotation
					JOINT RightToeBase
					{
						OFFSET -0.22354 -0.61416 1.89975
						CHANNELS 3 Zrotation Yrotation Xrotation
						End Site
						{
							OFFSET -0.00000 -0.00000 1.00221
						}
					}
				}
			}
		}
	}
	JOINT LowerBack
	{
		OFFSET 0 0 0
		CHANNELS 3 Zrotation Yrotation Xrotation
		JOINT Spine
		{
			OFFSET -0.04725 2.10352 -0.01215
			CHANNELS 3 Zrotation Yrotation Xrotation
			JOINT Spine1
			{
				OFFSET 0.04471 2.09612 -0.07192
				CHANNELS 3 Zrotation Yrotation Xrotation
				JOINT Neck
				{
					OFFSET 0 0 0
					CHANNELS 3 Zrotation Yrotation Xrotation
					JOINT Neck1
					{
						OFFSET -0.01586 1.38087 0.11506
						CHANNELS 3 Zrotation Yrotation Xrotation
						JOINT Head
						{
							OFFSET -0.01055 1.38869 -0.12115
							CHANNELS 3 Zrotation Yrotation Xrotation
							End Site
							{
								OFFSET -0.00310 1.39537 -0.05348
							}
						}
					}
				}
				JOINT LeftShoulder
				{
					OFFSET 0 0 0
					CHANNELS 3 Zrotation Yrotation Xrotation
					JOINT LeftArm
					{
						OFFSET 2.71932 0.62535 0.37316
						CHANNELS 3 Zrotation Yrotation Xrotation
						JOINT LeftForeArm
						{
							OFFSET 4.47366 -0.00000 0.00000
							CHANNELS 3 Zrotation Yrotation Xrotation
							JOINT LeftHand
							{
								OFFSET 3.19948 -0.00000 -0.00000
								CHANNELS 3 Zrotation Yrotation Xrotation
								JOINT LeftFingerBase
								{
									OFFSET 0 0 0
									CHANNELS 3 Zrotation Yrotation Xrotation
									JOINT LeftHandIndex1
									{
										OFFSET 0.49267 -0.00000 -0.00000
										CHANNELS 3 Zrotation Yrotation Xrotation
										End Site
										{
											OFFSET 0.39720 -0.00000 -0.00000
										}
									}
								}
								JOINT LThumb
								{
									OFFSET 0 0 0
									CHANNELS 3 Zrotation Yrotation Xrotation
									End Site
									{
										OFFSET 0.40327 -0.00000 0.40327
									}
								}
							}
						}
					}
				}
				JOINT RightShoulder
				{
					OFFSET 0 0 0
					CHANNELS 3 Zrotation Yrotation Xrotation
					JOINT RightArm
					{
						OFFSET -2.97334 0.70851 0.47631
						CHANNELS 3 Zrotation Yrotation Xrotation
						JOINT RightForeArm
						{
							OFFSET -4.32690 -0.00000 -0.00000
							CHANNELS 3 Zrotation Yrotation Xrotation
							JOINT RightHand
							{
								OFFSET -3.18960 -0.00000 0.00000
								CHANNELS 3 Zrotation Yrotation Xrotation
								JOINT RightFingerBase
								{
									OFFSET 0 0 0
									CHANNELS 3 Zrotation Yrotation Xrotation
									JOINT RightHandIndex1
									{
										OFFSET -0.46450 -0.00000 -0.00000
										CHANNELS 3 Zrotation Yrotation Xrotation
										End Site
										{
											OFFSET -0.37449 -0.00000 -0.00000
										}
									}
								}
								JOINT RThumb
								{
									OFFSET 0 0 0
									CHANNELS 3 Zrotation Yrotation Xrotation
									End Site
									{
										OFFSET -0.38021 -0.00000 0.38021
									}
								}
							}
						}
					}
				}
			}
		}
	}
}
MOTION
Frames: 14
Frame Time: 0.0344828
0.00 0.00 0.00 9.0161 5.5205 -1.6319 0.0000 0.0000 0.0000 -0.5925 20.6200 -86.4369 33.8868 14.5371 134.5658 4.1041 -20.1175 -37.4194 3.0655 -10.8003 -31.6094 0.0000 0.0000 0.0000 -24.8551 -12.2252 -27.1778 -36.2750 -11.7851 145.0240 -0.9359 17.3024 -19.7415 -1.3060 7.2394 -20.4265 -9.6308 0.5765 18.0952 -0.9947 -1.6664 -4.1023 4.8408 0.0396 -14.7497 -3.1359 0.0367 -19.5504 3.7865 0.9107 -14.8254 1.8020 0.6262 -1.6155 -0.0000 0.0000 0.0000 41.7483 -44.4851 -75.1073 120.8607 -56.0762 -86.3741 -0.0000 0.0000 -60.3749 50.2828 22.9681 25.1610 -7.1250 0.0000 -0.0000 27.0296 61.4787 11.3012 -0.0000 0.0000 0.0000 -43.0204 25.1404 -72.7556 -117.5446 56.9295 -83.6085 0.0000 0.0000 14.4351 -33.9829 -21.3191 13.7700 7.1250 -0.0000 -0.0000 -5.7480 -55.0922 1.4279
0.00 0.00 0.00 8.5126 4.9039 -3.6585 0.0000 0.0000 0.0000 -0.1592 20.9802 -85.7077 34.0039 14.4246 135.0339 4.2759 -18.8688 -37.9993 2.7008 -10.1942 -29.6080 0.0000 0.0000 0.0000 -26.5439 -12.2827 -26.4629 -36.4808 -11.4916 146.0437 -1.2849 16.1789 -21.7394 -1.9441 8.7488 -25.0125 -8.9104 0.5928 18.6639 -1.2706 -1.6190 -4.6792 4.1133 0.0473 -15.8242 -0.8074 0.3614 -17.9792 2.2718 0.8439 -16.8204 0.8991 0.4539 -2.5124 -0.0000 0.0000 0.0000 36.9578 -38.2480 -71.5027 107.5399 -58.8050 -75.1290 -0.0000 0.0000 -15.0170 43.3561 1.3854 1.3077 -7.1250 0.0000 -0.0000 13.3952 31.6968 -4.4665 -0.0000 0.0000 0.0000 -42.9691 25.4416 -75.3329 -115.0394 57.4931 -81.5022 0.0000 0.0000 8.4311 -31.5889 -22.6834 13.3409 7.1250 -0.0000 -0.0000 -2.8607 -56.0929 0.7788
0.00 0.00 0.00 7.2860 3.5337 -6.3715 0.0000 0.0000 0.0000 -1.0101 23.2938 -88.0194 34.6222 13.7970 137.5696 4.3330 -17.6101 -38.1097 2.4634 -9.7710 -28.2384 0.0000 0.0000 0.0000 -31.4701 -11.3624 -27.5414 -36.8326 -10.9613 147.8507 -0.9088 20.0756 -20.7370 -1.8542 8.5556 -24.4148 -8.5370 0.6688 20.3695 -0.4139 -1.4398 -4.0740 4.8760 0.1529 -16.1303 -4.3679 -2.3596 -19.1137 6.6322 -1.9618 -12.6667 2.8366 -0.7376 -0.7844 -0.0000 0.0000 0.0000 42.2764 -26.5727 -65.8438 106.7608 -58.9114 -74.4622 -0.0000 0.0000 -9.0911 57.5685 -0.4367 -0.6873 -7.1250 0.0000 -0.0000 23.6414 28.6978 -10.2008 -0.0000 0.0000 0.0000 -35.6088 20.6312 -69.5484 -132.2315 52.0549 -95.5969 0.0000 -0.0000 -7.1948 -30.4802 -27.3895 15.1506 7.1250 -0.0000 -0.0000 -0.2858 -60.9940 0.1114
0.00 0.00 0.00 8.3177 4.7774 -6.4676 0.0000 0.0000 0.0000 -0.5091 19.3252 -87.2146 34.2367 14.1950 135.9757 3.9767 -16.1737 -36.3665 2.2348 -9.3388 -26.8611 0.0000 0.0000 0.0000 -31.6255 -12.7422 -27.6829 -36.8913 -10.8690 148.1606 -0.6049 21.4871 -19.4429 -1.7290 8.2772 -23.5592 -9.4554 1.2280 20.5773 -0.6887 -0.9425 -3.2106 4.9146 0.3738 -15.2815 -5.7745 -3.2382 -19.1476 7.3595 -2.6440 -16.2216 3.3706 -1.0067 -1.9374 -0.0000 -0.0000 0.0000 12.1399 -23.1376 -56.2338 123.1323 -55.4158 -88.2518 -0.0000 0.0000 -11.2479 58.8513 2.0188 3.3358 -7.1250 0.0000 -0.0000 25.7128 32.9180 -8.3558 -0.0000 -0.0000 0.0000 -9.1774 13.5974 -61.1152 -139.2834 48.4888 -101.0259 0.0000 0.0000 1.5788 -38.9021 -28.3845 20.9877 7.1250 -0.0000 -0.0000 -11.0746 -64.4281 5.2404
0.00 0.00 0.00 7.0008 6.2648 -5.1947 0.0000 0.0000 0.0000 -0.9948 18.9579 -90.8639 34.5794 13.8424 137.3902 3.9188 -16.6725 -36.1448 2.2260 -9.3218 -26.8073 0.0000 0.0000 0.0000 -35.6412 -17.3123 -27.8205 -36.9946 -10.7038 148.7127 -0.8621 22.8180 -21.7637 -2.1846 9.2404 -26.5502 -7.9172 1.1871 18.4293 0.5989 -0.2338 -3.9224 5.2729 0.6429 -14.9317 -3.8563 -2.2122 -17.8403 4.5900 -1.8298 -17.1366 2.1178 -0.7087 -2.5584 -0.0000 -0.0000 0.0000 -33.6776 -13.7248 -18.2354 120.1719 -56.2640 -85.8019 -0.0000 0.0000 -9.5680 60.9441 2.5438 4.5674 -7.1250 0.0000 -0.0000 27.6271 33.9556 -8.3304 -0.0000 -0.0000 0.0000 15.8693 8.9250 -41.4824 -137.5778 49.4413 -99.7393 0.0000 -0.0000 -2.9782 -42.4826 -33.0109 26.5152 7.1250 -0.0000 -0.0000 -16.5895 -70.7299 10.2762
0.00 0.00 0.00 7.9929 7.6245 -5.4387 0.0000 0.0000 0.0000 -2.8272 14.5822 -90.1180 34.6694 13.7467 137.7679 4.0579 -14.2890 -36.6211 1.9723 -8.8080 -25.1967 0.0000 0.0000 0.0000 -41.6681 -20.1282 -26.3241 -36.9950 -10.7032 148.7147 -0.6101 24.1227 -20.9395 -1.6571 8.1120 -23.0547 -8.0624 0.6395 16.8008 0.2543 -0.9188 -4.3601 5.1371 0.3060 -14.3597 -0.8668 -1.0188 -16.6230 2.8802 -0.8988 -16.2840 1.0532 -0.4112 -2.4963 0.0000 -0.0000 0.0000 -45.6276 -10.8695 -1.7386 97.0842 -59.8095 -66.1312 -0.0000 0.0000 -6.4907 60.4407 3.1896 5.6033 -7.1250 0.0000 -0.0000 27.5993 35.0813 -7.4633 0.0000 -0.0000 0.0000 27.4322 8.9846 -26.2148 -133.4090 51.5245 -96.5222 0.0000 -0.0000 -2.8218 -39.7861 -34.0871 25.0194 7.1250 -0.0000 -0.0000 -11.4978 -71.0501 7.1708
0.00 0.00 0.00 8.1480 12.8084 -5.9461 0.0000 0.0000 0.0000 -4.2660 -0.6493 -87.0331 34.2158 14.2159 135.8907 3.9726 -7.3886 -36.4253 1.7038 -8.2197 -23.3834 0.0000 0.0000 0.0000 -45.7196 -24.7198 -21.2327 -36.5435 -11.3998 146.3597 -0.8163 22.4793 -21.3122 -1.6325 8.0546 -22.8801 -8.1523 -0.6928 15.0175 1.2296 -2.4244 -4.1081 6.6227 -0.4285 -12.6993 -0.7838 -0.5063 -18.8437 2.1331 -0.3405 -13.2115 0.7894 -0.1069 -1.1408 -0.0000 -0.0000 0.0000 -54.8693 -16.5350 7.4566 69.0157 -58.2690 -41.9327 -0.0000 0.0000 -3.4791 61.4795 3.6203 6.6279 -7.1250 0.0000 -0.0000 28.7123 35.9649 -7.1311 -0.0000 -0.0000 0.0000 33.8267 7.5813 -14.8554 -123.6609 55.2528 -88.6866 0.0000 -0.0000 -2.3061 -35.3620 -31.7313 20.4675 7.1250 -0.0000 -0.0000 -5.1305 -67.0850 2.7310
0.00 0.00 0.00 7.3186 12.4269 -6.9527 0.0000 0.0000 0.0000 -5.8819 -6.2053 -82.8202 33.4175 14.9700 132.7228 3.8944 -2.9371 -36.7624 1.9210 -8.6996 -24.8600 0.0000 0.0000 0.0000 -36.9156 -21.5731 -20.3256 -35.8270 -12.3871 142.8844 -1.7924 14.7037 -24.6404 -1.6895 8.1869 -23.2833 -6.5198 -0.5766 13.1835 3.4285 -1.5614 -4.1611 7.8783 -0.0882 -11.7781 1.4528 2.0475 -20.3099 -1.9978 2.3767 -9.3127 -0.7348 1.1021 0.4087 0.0000 -0.0000 0.0000 -58.7215 -24.7500 9.7221 44.6108 -50.5764 -21.9377 -0.0000 0.0000 -1.9123 64.0712 1.8676 3.8349 -7.1250 0.0000 -0.0000 29.6206 32.8501 -10.0165 0.0000 -0.0000 0.0000 27.9485 9.7732 -9.1743 -104.2246 59.2215 -72.2867 0.0000 0.0000 1.5380 -29.8624 -21.7588 12.0154 7.1250 -0.0000 -0.0000 -1.1577 -54.6901 0.2756
0.00 0.00 0.00 8.0114 4.4849 -7.1257 0.0000 0.0000 0.0000 -10.3365 -6.1619 -77.3461 31.0838 16.7535 124.2001 3.5014 2.2221 -36.2581 1.6806 -8.1664 -23.2206 0.0000 0.0000 0.0000 -25.0376 -15.1259 -27.9789 -34.5445 -13.8791 137.2447 -3.2327 2.2524 -33.5194 -1.4531 7.6196 -21.5644 1.2948 0.6186 15.2421 5.9600 1.8507 -3.9869 5.4474 1.0894 -13.2570 4.9478 7.5008 -19.5157 -8.2132 8.7626 -8.8327 -2.9405 4.0203 1.0788 -0.0000 0.0000 0.0000 -48.1230 -28.2786 0.3155 25.9274 -37.1369 -8.8438 -0.0000 0.0000 -3.8555 65.2106 0.8155 1.7651 -7.1250 0.0000 -0.0000 29.7407 30.7381 -11.8453 -0.0000 0.0000 0.0000 9.7623 19.5638 -9.6185 -76.5451 59.3048 -48.3749 0.0000 0.0000 1.5308 -31.2269 -19.3483 11.3573 7.1250 -0.0000 -0.0000 -3.0361 -52.2794 0.5444
0.00 0.00 0.00 9.5826 -1.9554 -2.6338 0.0000 0.0000 0.0000 -14.4372 -4.0135 -75.7636 26.4794 18.9621 109.2652 2.5931 4.8697 -32.4365 1.7091 -8.2320 -23.4208 0.0000 0.0000 0.0000 -17.3736 -3.9020 -35.2768 -31.3635 -16.5680 125.1759 -4.0398 2.5939 -37.5481 -3.7573 11.8303 -35.1342 7.6099 1.8906 16.0450 7.5901 5.1883 -4.3740 2.8319 2.1813 -14.1605 6.0088 11.3810 -18.9665 -13.1173 13.7110 -9.1536 -3.9207 6.3394 1.5546 -0.0000 0.0000 0.0000 -37.6282 -22.5206 -10.8125 18.9741 -29.3865 -5.0182 -0.0000 0.0000 -9.0895 64.4653 0.1790 0.3747 -7.1250 0.0000 -0.0000 28.8030 29.4555 -12.3968 -0.0000 0.0000 0.0000 -5.6546 21.2707 -14.4900 -67.5312 58.0037 -40.6719 0.0000 0.0000 0.0385 -30.3743 -19.6735 11.1619 7.1250 -0.0000 -0.0000 -2.0946 -52.4775 0.3856
0.00 0.00 0.00 11.6043 -4.1346 1.0157 0.0000 0.0000 0.0000 -18.0736 -4.3251 -71.9331 20.8242 19.9837 92.4104 2.1432 4.0673 -29.3434 3.3869 -11.2964 -33.2862 0.0000 0.0000 0.0000 -13.1606 1.7012 -37.4539 -27.3314 -18.6592 111.9071 -4.3552 -0.3154 -39.7870 -3.7590 11.8327 -35.1425 10.5933 2.8236 15.7154 7.6319 7.0868 -4.9563 0.7620 2.7647 -14.3487 7.3963 13.4945 -17.6441 -15.8457 16.4888 -8.8312 -4.6395 7.6609 2.1013 -0.0000 -0.0000 0.0000 -36.8575 -13.3015 -11.5681 17.5224 -27.5413 -4.3261 -0.0000 0.0000 -13.1259 64.1814 2.4229 4.9937 -7.1250 0.0000 -0.0000 30.0900 33.9578 -9.2757 -0.0000 -0.0000 0.0000 -10.2312 18.2277 -17.0247 -69.2893 58.3156 -42.1655 0.0000 -0.0000 -1.4931 -28.1630 -19.2677 10.0186 7.1250 -0.0000 -0.0000 0.1175 -51.6083 -0.0191
0.00 0.00 0.00 14.0242 -6.1028 3.0820 0.0000 0.0000 0.0000 -21.7561 -4.0830 -65.7266 14.4440 19.2432 73.5559 2.0276 0.4066 -27.1046 4.8293 -13.1890 -40.0801 0.0000 0.0000 0.0000 -8.3830 5.1912 -37.2905 -22.4914 -19.8505 97.3017 -4.5119 -8.1450 -43.3911 -2.3275 9.5173 -27.4273 11.7985 3.7392 15.3427 6.8462 8.3261 -4.7299 -1.0527 3.2209 -13.4779 7.4698 14.1760 -17.7895 -16.5926 17.5441 -7.9821 -4.6878 8.1356 2.5785 -0.0000 -0.0000 0.0000 -42.0307 -3.0385 -14.6636 18.5080 -28.8027 -4.7915 -0.0000 0.0000 -18.1475 63.8699 3.5734 7.2410 -7.1250 0.0000 -0.0000 30.6708 36.1768 -7.5677 -0.0000 -0.0000 0.0000 -11.5370 18.0514 -19.7213 -67.1184 57.9262 -40.3219 0.0000 -0.0000 -2.0657 -28.8647 -19.3795 10.3654 7.1250 -0.0000 -0.0000 -0.5807 -51.8620 0.0981
0.00 0.00 0.00 15.8433 -9.4951 5.7508 0.0000 0.0000 0.0000 -20.7237 -9.0370 -59.2106 9.0131 16.8161 56.1354 2.2537 -1.8250 -27.9196 4.7254 -13.0678 -39.6226 0.0000 0.0000 0.0000 -5.1401 11.0015 -35.2135 -16.0950 -19.6304 78.5146 -4.3781 -14.9201 -46.3503 -0.8283 5.8065 -16.2241 11.9280 5.2558 15.9775 5.3407 10.2748 -4.7370 -3.2979 4.0220 -13.3371 7.3417 14.2234 -18.4521 -16.4271 17.5188 -8.6102 -4.6170 8.1290 2.4468 0.0000 -0.0000 0.0000 -50.3254 9.9086 -17.3945 20.5040 -31.2447 -5.7905 -0.0000 0.0000 -28.6567 63.2636 5.8410 11.4215 -7.1250 0.0000 -0.0000 31.8808 40.3471 -4.1525 0.0000 -0.0000 0.0000 -12.8701 17.4620 -22.6599 -61.6244 56.7275 -35.6960 0.0000 -0.0000 -0.7597 -29.7523 -19.6472 10.8789 7.1250 -0.0000 -0.0000 -1.4506 -52.3275 0.2617
0.00 0.00 0.00 12.4745 -13.3699 11.2082 0.0000 0.0000 0.0000 -22.3592 -14.2589 -58.2906 9.9932 17.4061 59.4658 1.9867 0.8725 -26.9927 4.1212 -12.3200 -36.8735 0.0000 0.0000 0.0000 -1.4318 19.5300 -39.1367 -11.5552 -18.1962 64.5717 -2.2513 -17.4118 -38.8253 -0.0945 1.9827 -5.4578 12.5513 7.5298 18.0026 4.9709 13.6217 -4.0734 -4.9969 5.5045 -13.0898 6.4599 13.6424 -19.1046 -14.4299 16.5541 -11.5520 -4.1367 7.8128 1.2445 0.0000 -0.0000 0.0000 -74.3480 22.5136 7.1410 15.4720 -24.7995 -3.4215 -0.0000 0.0000 -25.5469 56.1877 5.8627 8.6714 -7.1250 0.0000 -0.0000 25.3976 39.0773 -4.0150 0.0000 -0.0000 0.0000 -1.9672 3.9034 -29.9228 -77.2333 59.3751 -48.9669 0.0000 -0.0000 -20.9987 -21.3232 -23.5441 8.8626 7.1250 -0.0000 -0.0000 8.4222 -54.8504 -2.0484
